# xmcd
#
# Track frame offsets:
#	183
#	16355
#	42658
#	56988
#	71520
#	84570
#	100658
#	116678
#	128605
#	143088
#	158960
#	177578
#
# Disc length: 2590 seconds
#
# Revision: 1
# Processed by: cddbd v1.5.1PL2 Copyright (c) Steve Scherf et al.
# Submitted via: audiograbber 1.83.01
#
DISCID=a80a1c0c
DTITLE=Western Union - Der liebe Gott, der muss`n Cowboy sein
DYEAR=1985
DGENRE=
TTITLE0=Der liebe Gott, der muss`n Cowboy sein
TTITLE1=Transit Cowboy
TTITLE2=Frei wie die Adler
TTITLE3=Räder
TTITLE4=Highway Driver 59
TTITLE5=Der Mann im Spiegel
TTITLE6=Bärenstark
TTITLE7=Ausgerechnet mir
TTITLE8=Sie holt mich hier raus
TTITLE9=Eigentlich brauch` ich nur dich
TTITLE10=Ich kann lieben, aber zeigen kann ich`s nicht
TTITLE11=Trotzdem sagt sie immer wieder ja
EXTD=
EXTT0=
EXTT1=
EXTT2=
EXTT3=
EXTT4=
EXTT5=
EXTT6=
EXTT7=
EXTT8=
EXTT9=
EXTT10=
EXTT11=
PLAYORDER=
